<svg width="24" height="24" viewBox="0 0 24 24" fill="none" xmlns="http://www.w3.org/2000/svg">
<rect x="3" y="2" width="17" height="19" rx="8" fill="#FF5900"/>
<g clip-path="url(#clip0_502_11)">
<path d="M12.0001 9.64207e-06C10.5534 -0.00374534 9.12035 0.28054 7.78462 0.836293C6.44889 1.39205 5.23716 2.20814 4.22008 3.23701C2.15461 5.32278 0.999422 8.14178 1.00729 11.0772C1.01516 14.0126 2.18545 16.8253 4.26208 18.9L8.00008 22.359C9.06212 23.4052 10.4915 23.9943 11.9823 24C13.4731 24.0058 14.9069 23.4279 15.9771 22.39L19.7841 18.854C21.843 16.7769 22.9982 13.9706 22.9982 11.046C22.9982 8.12137 21.843 5.3151 19.7841 3.23801C18.7666 2.20848 17.5543 1.39192 16.2178 0.83598C14.8813 0.280039 13.4475 -0.00414612 12.0001 9.64207e-06V9.64207e-06ZM17.7001 16.7L13.9001 20.226C13.3828 20.7204 12.6933 20.9937 11.9778 20.9879C11.2623 20.9821 10.5773 20.6977 10.0681 20.195L6.34608 16.736C4.84518 15.2222 4.00306 13.1768 4.00306 11.045C4.00306 8.91326 4.84518 6.86783 6.34608 5.35401C7.08662 4.60805 7.96746 4.01601 8.93784 3.61199C9.90822 3.20797 10.949 2.99997 12.0001 2.99997C13.0512 2.99997 14.0919 3.20797 15.0623 3.61199C16.0327 4.01601 16.9135 4.60805 17.6541 5.35401V5.35401C19.1526 6.85896 19.9978 8.89379 20.0064 11.0176C20.015 13.1413 19.1864 15.183 17.7001 16.7V16.7ZM17.0001 10.128V14C17.0001 14.2652 16.8947 14.5196 16.7072 14.7071C16.5196 14.8947 16.2653 15 16.0001 15H15.0001C14.7349 15 14.4805 14.8947 14.293 14.7071C14.1054 14.5196 14.0001 14.2652 14.0001 14V12C14.0001 11.7348 13.8947 11.4804 13.7072 11.2929C13.5196 11.1054 13.2653 11 13.0001 11H11.0001C10.7349 11 10.4805 11.1054 10.293 11.2929C10.1054 11.4804 10.0001 11.7348 10.0001 12V14C10.0001 14.2652 9.89472 14.5196 9.70718 14.7071C9.51965 14.8947 9.26529 15 9.00008 15H8.00008C7.73486 15 7.48051 14.8947 7.29297 14.7071C7.10543 14.5196 7.00008 14.2652 7.00008 14V10.128C7.00012 9.80506 7.07838 9.48693 7.22814 9.20081C7.37791 8.91469 7.59473 8.66909 7.86008 8.48501L10.8601 6.40301C11.1949 6.17075 11.5926 6.0463 12.0001 6.0463C12.4075 6.0463 12.8053 6.17075 13.1401 6.40301L16.1401 8.48501C16.4054 8.66909 16.6223 8.91469 16.772 9.20081C16.9218 9.48693 17 9.80506 17.0001 10.128Z" fill="#FF5900"/>
</g>
<g clip-path="url(#clip1_502_11)">
<path d="M12.884 5.57332C12.7679 5.45722 12.6301 5.36511 12.4784 5.30227C12.3267 5.23943 12.1642 5.20709 12 5.20709C11.8358 5.20709 11.6732 5.23943 11.5216 5.30227C11.3699 5.36511 11.2321 5.45722 11.116 5.57332L6 10.6898V15.4998C6 15.8976 6.15803 16.2792 6.43934 16.5605C6.72064 16.8418 7.10217 16.9998 7.5 16.9998H16.5C16.8978 16.9998 17.2794 16.8418 17.5607 16.5605C17.842 16.2792 18 15.8976 18 15.4998V10.6898L12.884 5.57332ZM16.5 15.4998H14V13.9088C14 13.4025 13.7989 12.917 13.4409 12.559C13.0829 12.201 12.5973 11.9998 12.091 11.9998H11.909C11.4027 11.9998 10.9171 12.201 10.5591 12.559C10.2011 12.917 10 13.4025 10 13.9088V15.4998H7.5V11.3108L12 6.81082L16.5 11.3108V15.4998Z" fill="#FFF5F0"/>
</g>
<defs>
<clipPath id="clip0_502_11">
<rect width="24" height="24" fill="white"/>
</clipPath>
<clipPath id="clip1_502_11">
<rect width="12" height="12" fill="white" transform="translate(6 5)"/>
</clipPath>
</defs>
</svg>
